<svg width="60" height="56" fill="none" xmlns="http://www.w3.org/2000/svg"><g clip-path="url(#clip0_23:119)"><path d="M32.452 5.655a1 1 0 00-.81-.682l-3.28-.473-1.467-2.946a1 1 0 00-1.79 0L23.639 4.5l-3.282.473a1 1 0 00-.552 1.709l2.37 2.29-.559 3.233a1 1 0 001.448 1.057L26 11.73l2.938 1.532a1 1 0 001.447-1.057l-.561-3.233 2.37-2.29a1 1 0 00.257-1.027zm-4.397 2.247a1 1 0 00-.29.89l.304 1.762-1.607-.837a1 1 0 00-.925 0l-1.607.837.305-1.762a1 1 0 00-.29-.89l-1.284-1.24 1.782-.257a1 1 0 00.752-.544L26 4.244l.804 1.617a1 1 0 00.753.544l1.781.257-1.283 1.24zm17.897 1.753a1 1 0 00-.81-.682l-3.28-.473-1.467-2.946a1 1 0 00-1.79 0L37.139 8.5l-3.282.473a1 1 0 00-.552 1.709l2.37 2.29-.559 3.233a1 1 0 001.448 1.057L39.5 15.73l2.938 1.532a1 1 0 001.447-1.057l-.561-3.233 2.37-2.29a1 1 0 00.257-1.027zm-4.397 2.247a1 1 0 00-.29.89l.304 1.762-1.607-.837a1 1 0 00-.925 0l-1.607.837.305-1.762a1 1 0 00-.29-.89l-1.284-1.24 1.782-.257a.999.999 0 00.752-.544l.805-1.617.804 1.617a1 1 0 00.753.544l1.781.257-1.283 1.24zM18.951 10.28a1 1 0 00-.808-.682l-3.282-.473-1.466-2.946a1 1 0 00-1.79 0l-1.466 2.946-3.282.473a1 1 0 00-.552 1.709l2.37 2.29-.559 3.233a1 1 0 001.448 1.057l2.937-1.532 2.938 1.532a1 1 0 001.447-1.057l-.561-3.233 2.37-2.29a1 1 0 00.256-1.027zm-4.396 2.247a1 1 0 00-.29.89l.304 1.762-1.607-.837a1 1 0 00-.925 0l-1.607.837.305-1.762a1 1 0 00-.29-.89l-1.284-1.24 1.782-.257a.999.999 0 00.752-.544l.805-1.617.804 1.617a1 1 0 00.753.544l1.781.257-1.283 1.24zM59 39h-6a1 1 0 00-.908.582 2.98 2.98 0 01-.212-.4l-1.96-4.576-.01-.02-5-11a1.001 1.001 0 00-1.357-.48c-1.23.615-1.992 1.394-2.43 2.258A23.894 23.894 0 0029 20.187V18h1a1 1 0 100-2h-8a1 1 0 000 2h1v2.188C11.501 21.628 2.507 31.233 2.022 43H1a1 1 0 00-1 1v2a3.003 3.003 0 003 3h27.766a3 3 0 001.446.894A3 3 0 0035 54h17a1 1 0 001 1h6a1 1 0 001-1V40a1 1 0 00-1-1zM25 18h2v2.022A24.277 24.277 0 0026 20c-.334 0-.668.009-1 .022V18zm1 4a21.93 21.93 0 0114.62 5.56c-.022 1.66.594 3.387 1.087 4.768.123.346.24.673.345.988.476 1.43.426 2.265.326 2.684H33a2.998 2.998 0 00-2.234 5A2.987 2.987 0 0030 43H4.024C4.548 31.331 14.204 22 26 22zm6 17a1.002 1.002 0 011-1h8a1 1 0 010 2h-8a1.001 1.001 0 01-1-1zm0 4a1.002 1.002 0 011-1h8a1 1 0 010 2h-8a1.001 1.001 0 01-1-1zM3 47a1.001 1.001 0 01-1-1v-1h28.766A2.987 2.987 0 0030 47H3zm30-1h8a1 1 0 010 2h-8a1 1 0 110-2zm2 6a1 1 0 110-2h6a1 1 0 010 2h-6zm8.828 0a2.993 2.993 0 00-.594-3 2.993 2.993 0 000-4c.138-.155.26-.324.365-.504C44.832 45.134 46.893 46 49 46a1 1 0 100-2c-2.068 0-4.206-1.103-5.06-1.598A2.992 2.992 0 0043.234 41a2.995 2.995 0 00.473-3.293c.24-.24 1.38-1.61.241-5.023a52.413 52.413 0 00-.358-1.027c-1.002-2.81-1.56-4.853-.022-6.19l4.517 9.937 1.957 4.567A4.981 4.981 0 0052 42.247V52h-8.172zM58 53h-4V41h4v12z" fill="#F37321"/><path d="M32.452 5.655a1 1 0 00-.81-.682l-3.28-.473-1.467-2.946a1 1 0 00-1.79 0L23.639 4.5l-3.282.473a1 1 0 00-.552 1.709l2.37 2.29-.559 3.233a1 1 0 001.448 1.057L26 11.73l2.938 1.532a1 1 0 001.447-1.057l-.561-3.233 2.37-2.29a1 1 0 00.257-1.027zm-4.397 2.247a1 1 0 00-.29.89l.304 1.762-1.607-.837a1 1 0 00-.925 0l-1.607.837.305-1.762a1 1 0 00-.29-.89l-1.284-1.24 1.782-.257a1 1 0 00.752-.544L26 4.244l.804 1.617a1 1 0 00.753.544l1.781.257-1.283 1.24zm17.897 1.753a1 1 0 00-.81-.682l-3.28-.473-1.467-2.946a1 1 0 00-1.79 0L37.139 8.5l-3.282.473a1 1 0 00-.552 1.709l2.37 2.29-.559 3.233a1 1 0 001.448 1.057L39.5 15.73l2.938 1.532a1 1 0 001.447-1.057l-.561-3.233 2.37-2.29a1 1 0 00.257-1.027zm-4.397 2.247a1 1 0 00-.29.89l.304 1.762-1.607-.837a1 1 0 00-.925 0l-1.607.837.305-1.762a1 1 0 00-.29-.89l-1.284-1.24 1.782-.257a.999.999 0 00.752-.544l.805-1.617.804 1.617a1 1 0 00.753.544l1.781.257-1.283 1.24zM18.951 10.28a1 1 0 00-.808-.682l-3.282-.473-1.466-2.946a1 1 0 00-1.79 0l-1.466 2.946-3.282.473a1 1 0 00-.552 1.709l2.37 2.29-.559 3.233a1 1 0 001.448 1.057l2.937-1.532 2.938 1.532a1 1 0 001.447-1.057l-.561-3.233 2.37-2.29a1 1 0 00.256-1.027zm-4.396 2.247a1 1 0 00-.29.89l.304 1.762-1.607-.837a1 1 0 00-.925 0l-1.607.837.305-1.762a1 1 0 00-.29-.89l-1.284-1.24 1.782-.257a.999.999 0 00.752-.544l.805-1.617.804 1.617a1 1 0 00.753.544l1.781.257-1.283 1.24zM59 39h-6a1 1 0 00-.908.582 2.98 2.98 0 01-.212-.4l-1.96-4.576-.01-.02-5-11a1.001 1.001 0 00-1.357-.48c-1.23.615-1.992 1.394-2.43 2.258A23.894 23.894 0 0029 20.187V18h1a1 1 0 100-2h-8a1 1 0 000 2h1v2.188C11.501 21.628 2.507 31.233 2.022 43H1a1 1 0 00-1 1v2a3.003 3.003 0 003 3h27.766a3 3 0 001.446.894A3 3 0 0035 54h17a1 1 0 001 1h6a1 1 0 001-1V40a1 1 0 00-1-1zM25 18h2v2.022A24.277 24.277 0 0026 20c-.334 0-.668.009-1 .022V18zm1 4a21.93 21.93 0 0114.62 5.56c-.022 1.66.594 3.387 1.087 4.768.123.346.24.673.345.988.476 1.43.426 2.265.326 2.684H33a2.998 2.998 0 00-2.234 5A2.987 2.987 0 0030 43H4.024C4.548 31.331 14.204 22 26 22zm6 17a1.002 1.002 0 011-1h8a1 1 0 010 2h-8a1.001 1.001 0 01-1-1zm0 4a1.002 1.002 0 011-1h8a1 1 0 010 2h-8a1.001 1.001 0 01-1-1zM3 47a1.001 1.001 0 01-1-1v-1h28.766A2.987 2.987 0 0030 47H3zm30-1h8a1 1 0 010 2h-8a1 1 0 110-2zm2 6a1 1 0 110-2h6a1 1 0 010 2h-6zm8.828 0a2.993 2.993 0 00-.594-3 2.993 2.993 0 000-4c.138-.155.26-.324.365-.504C44.832 45.134 46.893 46 49 46a1 1 0 100-2c-2.068 0-4.206-1.103-5.06-1.598A2.992 2.992 0 0043.234 41a2.995 2.995 0 00.473-3.293c.24-.24 1.38-1.61.241-5.023a52.413 52.413 0 00-.358-1.027c-1.002-2.81-1.56-4.853-.022-6.19l4.517 9.937 1.957 4.567A4.981 4.981 0 0052 42.247V52h-8.172zM58 53h-4V41h4v12z" stroke="#F37321" stroke-width=".2"/></g><defs><clipPath id="clip0_23:119"><path fill="#fff" d="M0 0h60v56H0z"/></clipPath></defs></svg>