<svg width="58" height="59" fill="none" xmlns="http://www.w3.org/2000/svg"><path d="M51.32 26.15c-.3-.09-.61-.05-.89.11-.27.16-.47.43-.55.75-.15.63.24 1.27.88 1.44 4.62 1.25 4.62 2.75 4.62 3.74 0 .82-1.28 1.82-3.45 2.71l-.09-.36c-.24-.99-.47-1.93-2.35-2.67-.29-.11-.6-.1-.88.04-.29.14-.51.41-.61.73-.17.59.16 1.24.76 1.51 1.02.45.99.86.96 1.3 0 .07-.01.15-.01.22-4.14 1.23-9.69 1.9-15.66 1.9-5.93 0-11.45-.67-15.58-1.88.48-.65 2.56-1.87 7.32-2.63.64-.1 1.1-.71 1.01-1.35-.04-.32-.21-.6-.47-.79-.25-.19-.57-.26-.88-.22-2.47.4-4.6.96-6.15 1.65-1.64.72-2.68 1.58-3.1 2.55-2.18-.88-3.47-1.89-3.47-2.71 0-.25.21-1.58 4.3-3.04 2.91-1.04 6.99-1.79 11.47-2.13.65-.05 1.15-.62 1.11-1.26-.02-.32-.16-.61-.4-.82-.24-.21-.55-.31-.86-.29-4.7.35-9 1.16-12.11 2.27-4.86 1.73-5.88 3.82-5.88 5.28 0 2.01.37 3.99 1.1 5.86l1.56 4c.12.29.34.53.63.66s.61.13.91.02c.29-.12.53-.34.66-.63s.13-.61.02-.91l-1.56-4c-.13-.34-.25-.69-.36-1.05 1.17.68 2.67 1.29 4.49 1.82 4.36 1.27 10.12 1.97 16.24 1.97 6.12 0 11.89-.7 16.24-1.97 1.82-.53 3.32-1.14 4.49-1.82-.11.35-.23.7-.36 1.05l-3.22 8.28c-.19.48-.42.94-.69 1.37-.35.56-.24 1.28.25 1.68.21.17.47.25.73.25.06 0 .12 0 .18-.01.31-.05.57-.22.74-.48.4-.61.74-1.27 1-1.95l3.22-8.28c.73-1.88 1.1-3.85 1.1-5.86.02-3.66-4.01-5.36-6.41-6.05z" fill="#F37321"/><path d="M31.07 27.2l-2.28 4.56c-.29.58-.05 1.3.53 1.59.59.29 1.3.05 1.59-.53l2.28-4.56c1.8-3.58 4.81-6.41 8.48-8 .01.04.03.08.04.12-2.55 2.18-4.86 5.16-6.52 8.4l-2.33 4.53c-.15.28-.17.6-.08.91.1.3.31.55.59.69.28.14.6.17.91.08.3-.1.55-.31.69-.59l2.33-4.53c1.5-2.94 3.59-5.64 5.88-7.62l.18.12c.06.03.11.07.17.1l-1.05 1.96c-1.02 1.91-2.08 3.89-3.16 5.94l-1.69 3.18c-.31.58-.08 1.3.49 1.61.58.31 1.3.08 1.61-.49l1.69-3.18c1.08-2.05 2.13-4.02 3.15-5.92l.95-1.78c.01 2.85-.7 5.66-2.07 8.17l-.87 1.59a1.18 1.18 0 00.47 1.61 1.157 1.157 0 00.91.1c.3-.09.56-.29.71-.57l.87-1.59c1.85-3.38 2.64-7.18 2.28-11.02.36-.28.66-.63.9-1.02L56.2 8.85c.55-.89.71-1.95.47-2.96a3.906 3.906 0 00-1.77-2.43c-.89-.55-1.95-.71-2.96-.47a3.86 3.86 0 00-2.42 1.77l-7.46 12.21c-.14.23-.26.48-.35.73a19.455 19.455 0 00-10.64 9.5zM53.1 5.27c.2.03.39.1.57.21.17.11.32.24.44.41.12.17.21.35.25.55.05.2.06.4.02.6-.03.2-.1.39-.21.57l-7.46 12.21c-.11.17-.24.32-.41.44-.17.12-.35.21-.55.25-.2.05-.4.06-.6.02-.2-.03-.39-.1-.57-.21a1.56 1.56 0 01-.44-.41c-.12-.16-.21-.35-.25-.55-.05-.2-.06-.4-.02-.6.03-.2.1-.39.21-.57L51.54 6c.11-.17.24-.32.41-.44.16-.12.35-.21.55-.25.12-.03.24-.04.36-.04.08-.02.16-.01.24 0zM1.76 45.48c.15.07.31.1.48.1.17 0 .33-.04.49-.11.54-.25.84-.89.71-1.56-.04-.22-.06-.44-.06-.66v-1.14c0-9.69 1.51-19.27 4.5-28.49h20.01c-.72 2.3-1.37 4.66-1.92 7.01-.07.31-.02.62.15.89.17.27.43.46.75.53.64.14 1.27-.26 1.42-.9.59-2.52 1.29-5.05 2.09-7.53h1.82c1.07 0 2.07-.42 2.83-1.17.76-.75 1.17-1.76 1.17-2.83V6.81c0-.16-.03-.31-.09-.46-.06-.15-.15-.27-.26-.38-.11-.11-.24-.2-.38-.26s-.3-.09-.46-.09h-4.43c.05-.84.41-1.62 1.01-2.22.66-.66 1.54-1.03 2.47-1.03h.17c.76 0 1.52.26 2.12.72.61.46 1.05 1.12 1.25 1.86l1.02 3.48c.24.87.47 1.78.7 2.72.15.63.79 1.03 1.43.89.31-.07.58-.26.74-.53.17-.27.22-.59.14-.89-.22-.94-.47-1.88-.72-2.81L39.9 4.33a5.954 5.954 0 00-2.1-3.12A5.915 5.915 0 0034.23 0H8.75C7.18 0 5.71.61 4.6 1.72a5.847 5.847 0 00-1.72 4.16v3.75c0 .85.28 1.69.78 2.37.46.62 1.08 1.09 1.8 1.37A94.752 94.752 0 001 42.12v1.14c0 .52.07 1.05.21 1.56.08.3.27.53.55.66zM33.81 9.62c0 .43-.17.85-.48 1.15-.61.62-1.69.61-2.3 0-.31-.31-.48-.71-.48-1.15V8h3.25v1.62h.01zm-5.28 1.63H6.88c-.43 0-.84-.17-1.15-.48a1.62 1.62 0 01-.48-1.15V5.88c0-.93.37-1.81 1.03-2.47.66-.66 1.54-1.03 2.47-1.03h20.6a5.858 5.858 0 00-1.16 3.5v3.75c0 .56.12 1.11.34 1.62zm19.56 37.92c-.39-.35-.84-.62-1.33-.79-.5-.17-1.01-.23-1.54-.18l-.73.07a6.75 6.75 0 00-2.4-2.26 6.968 6.968 0 00-3.34-.88H11.56c-1.17 0-2.32.3-3.34.87a6.84 6.84 0 00-2.4 2.26l-.72-.06c-.51-.05-1.01.01-1.5.17a3.771 3.771 0 00-2.23 1.94c-.22.46-.34.95-.37 1.46-.02.51.06 1.01.24 1.49s.45.91.8 1.28c.35.37.77.66 1.24.86.57.25 1.2.35 1.81.29l.73-.07a6.849 6.849 0 005.73 3.14h27.21c.89 0 1.76-.17 2.59-.51a6.71 6.71 0 002.21-1.48c.35-.35.66-.73.92-1.14l.73.07a3.752 3.752 0 003.84-2.38c.27-.71.33-1.47.15-2.21-.16-.77-.55-1.43-1.11-1.94zm-2.67 1.39c.19-.02.38 0 .56.06.18.06.34.15.48.27.14.12.25.27.34.44.08.17.13.35.14.54.01.19-.02.37-.08.55-.07.18-.16.33-.29.47-.13.13-.28.24-.45.32-.21.09-.43.13-.67.11h-.01c.17-.91.17-1.85-.02-2.76zm-40.67 0c.04 0 .09 0 .13.01l5.64.51c.22.02.42.12.56.28.15.16.23.37.23.58 0 .21-.08.42-.23.58-.15.16-.34.26-.56.28l-5.64.51c-.19.02-.37 0-.55-.06a1.42 1.42 0 01-.48-.27c-.14-.12-.25-.27-.33-.44-.09-.17-.13-.35-.14-.54a1.3 1.3 0 01.09-.55 1.364 1.364 0 01.75-.79c.16-.07.35-.1.53-.1zm5.99 4.61c.81-.07 1.55-.44 2.1-1.04.55-.6.85-1.37.85-2.19 0-.82-.3-1.59-.85-2.18-.55-.6-1.29-.97-2.1-1.04l-2.02-.18c.45-.38.98-.66 1.55-.83.7-.21 1.44-.25 2.15-.11s1.39.46 1.95.92 1.01 1.06 1.28 1.73c.28.67.39 1.41.32 2.13a4.37 4.37 0 01-.73 2.03c-.4.6-.96 1.1-1.6 1.45-.64.35-1.36.52-2.09.52-.61 0-1.2-.13-1.76-.37-.39-.17-.75-.39-1.08-.66l2.03-.18zm7.1-.59a6.838 6.838 0 00-1.11-7.08h22.02c.88 0 1.73.26 2.47.75.73.49 1.3 1.18 1.63 1.99.34.81.42 1.7.25 2.56a4.42 4.42 0 01-2.65 3.23c-.54.22-1.1.33-1.68.33H16.73c.46-.52.83-1.12 1.11-1.78z" fill="#F37321"/></svg>