<svg width="60" height="60" fill="none" xmlns="http://www.w3.org/2000/svg"><g clip-path="url(#clip0_23:74)"><path d="M10.003 44.997a1 1 0 00-1 1v6a1 1 0 002 0v-6a1 1 0 00-1-1zm4 0a1 1 0 00-1 1v6a1 1 0 002 0v-6a1 1 0 00-1-1zm4-9.999a1 1 0 00-1 1v6a1 1 0 102 0v-6a1 1 0 00-1-1zm0 9.999a1 1 0 00-1 1v6a1 1 0 102 0v-6a1 1 0 00-1-1zm4-9.999a1 1 0 00-1 1v6a1 1 0 002 0v-6a1 1 0 00-1-1zm0 9.999a1 1 0 00-1 1v6a1 1 0 002 0v-6a1 1 0 00-1-1zm15.999-9.999a1 1 0 00-1 1v6a1 1 0 102 0v-6a1 1 0 00-1-1zm0 9.999a1 1 0 00-1 1v6a1 1 0 102 0v-6a1 1 0 00-1-1zm3.999-9.999a1 1 0 00-1 1v6a1 1 0 102 0v-6a1 1 0 00-1-1zm0 9.999a1 1 0 00-1 1v6a1 1 0 102 0v-6a1 1 0 00-1-1zm4 0a1 1 0 00-1 1v6a1 1 0 002 0v-6a1 1 0 00-1-1zm3.999 0a1 1 0 00-.999 1v6a1 1 0 102 0v-6a1 1 0 00-1-1zm-19.998-9.999a1 1 0 00-1 1v6a1 1 0 102 0v-6a1 1 0 00-1-1zm0 9.999a1 1 0 00-1 1v6a1 1 0 102 0v-6a1 1 0 00-1-1zm-4-9.999a1 1 0 00-1 1v6a1 1 0 002 0v-6a1 1 0 00-1-1zm0 9.999a1 1 0 00-1 1v6a1 1 0 002 0v-6a1 1 0 00-1-1zm8-9.999a1 1 0 00-1 1v6a1 1 0 002 0v-6a1 1 0 00-1-1zm0 9.999a1 1 0 00-1 1v6a1 1 0 002 0v-6a1 1 0 00-1-1z" fill="#F37321"/><path d="M57.648 43.878l1.486-11.89a1 1 0 00.866-.99v-6a1 1 0 00-1-1h-2.532a5.996 5.996 0 00-3.825-9.965 5.997 5.997 0 00-9.14-6.907C42.016 5.172 39.625 4 37.001 4c-3.134 0-5.913 1.678-7.223 4.269a5.998 5.998 0 00-7.771 5.932c-.694.14-1.371.355-2.02.638a9.022 9.022 0 00-1.803-2.38A7.007 7.007 0 0116.032 8h.97a1 1 0 001-1V5a3.003 3.003 0 00-3-2.999H9.004a3.003 3.003 0 00-3 3v2a1 1 0 001 1h.97a7.007 7.007 0 01-2.152 4.46A8.913 8.913 0 003.004 19c0 .738.273 1.45.767 2a2.987 2.987 0 00-.767 2v1h-2a1 1 0 00-1 1v6a1 1 0 00.866.99l1.49 11.922L.37 47.56a2.994 2.994 0 002.998 4.413l.331 2.654c.24 1.921 1.948 3.37 3.972 3.37h44.662c2.024 0 3.731-1.449 3.971-3.37l.337-2.695a2.997 2.997 0 002.992-4.414l-1.985-3.64zM58 25.998v4h-7.923l-2.182-4H58zm-.883 6l-1.109 8.875-4.84-8.875h5.95zM28.002 10a3.954 3.954 0 011.85.454.999.999 0 001.413-.569C32.042 7.561 34.348 6 37.001 6c2.288 0 4.41 1.222 5.406 3.113a1 1 0 001.627.205A4 4 0 0151 11.999a3.955 3.955 0 01-.877 2.497 1 1 0 001 1.6 4.001 4.001 0 014.687 5.123 4 4 0 01-3.81 2.78h-2.46a10.002 10.002 0 00-16.468-4.21 9.997 9.997 0 00-9.07-5.79 4.004 4.004 0 013.999-4zm19.415 13.999H32.585a8 8 0 0114.832 0zm-26.706-7.292a8.004 8.004 0 0110.909 4.845 10.02 10.02 0 00-1.16 2.447h-9.458v-1c0-.739-.272-1.451-.766-2a2.988 2.988 0 00.766-2 9.087 9.087 0 00-.291-2.292zm23.957 9.292l-1.902 1.037a1 1 0 00-.4 1.357l.877 1.605h-26.46l.854-1.563a1 1 0 00-.4-1.357l-1.978-1.08h29.409zm-36.665-21a1.001 1.001 0 011-1h6a1 1 0 011 1v1h-8V5zm7.278 7H8.724A9.036 9.036 0 009.98 8h4.048a9.036 9.036 0 001.254 4zM7.11 14h9.788a6.928 6.928 0 012.106 5 1 1 0 01-1 1h-12a1 1 0 01-1-1 6.927 6.927 0 012.106-5zm-2.106 9a1.001 1.001 0 011-1h12a1 1 0 011 1v1h-14v-1zm-3 7v-4h10.128l-2.181 4H2.003zm6.856 2L4 40.907l-1.113-8.908H8.86zM3.882 49.475a1.002 1.002 0 01-1.357.399 1.001 1.001 0 01-.4-1.357l11.521-21.12 1.756.957-11.52 21.12zm50.438 4.903c-.115.922-.97 1.618-1.988 1.618H7.671c-1.018 0-1.872-.696-1.987-1.618l-.426-3.405c.146-.166.273-.347.379-.54l7.366-13.504v5.068a1 1 0 002 0v-6a1 1 0 00-.948-.997l1.638-3.003h28.64L45.972 35a1 1 0 00-.97.999v6a1 1 0 102 0v-5.11l7.365 13.503c.107.196.236.38.384.546l-.43 3.442zm3.64-5.142a.999.999 0 01-1.838.197L44.6 28.313l1.756-.958 11.52 21.121a.992.992 0 01.082.761z" fill="#F37321"/><path d="M10.003 44.997a1 1 0 00-1 1v6a1 1 0 002 0v-6a1 1 0 00-1-1zm4 0a1 1 0 00-1 1v6a1 1 0 002 0v-6a1 1 0 00-1-1zm4-9.999a1 1 0 00-1 1v6a1 1 0 102 0v-6a1 1 0 00-1-1zm0 9.999a1 1 0 00-1 1v6a1 1 0 102 0v-6a1 1 0 00-1-1zm4-9.999a1 1 0 00-1 1v6a1 1 0 002 0v-6a1 1 0 00-1-1zm0 9.999a1 1 0 00-1 1v6a1 1 0 002 0v-6a1 1 0 00-1-1zm15.999-9.999a1 1 0 00-1 1v6a1 1 0 102 0v-6a1 1 0 00-1-1zm0 9.999a1 1 0 00-1 1v6a1 1 0 102 0v-6a1 1 0 00-1-1zm3.999-9.999a1 1 0 00-1 1v6a1 1 0 102 0v-6a1 1 0 00-1-1zm0 9.999a1 1 0 00-1 1v6a1 1 0 102 0v-6a1 1 0 00-1-1zm4 0a1 1 0 00-1 1v6a1 1 0 002 0v-6a1 1 0 00-1-1zm3.999 0a1 1 0 00-.999 1v6a1 1 0 102 0v-6a1 1 0 00-1-1zm-19.998-9.999a1 1 0 00-1 1v6a1 1 0 102 0v-6a1 1 0 00-1-1zm0 9.999a1 1 0 00-1 1v6a1 1 0 102 0v-6a1 1 0 00-1-1zm-4-9.999a1 1 0 00-1 1v6a1 1 0 002 0v-6a1 1 0 00-1-1zm0 9.999a1 1 0 00-1 1v6a1 1 0 002 0v-6a1 1 0 00-1-1zm8-9.999a1 1 0 00-1 1v6a1 1 0 002 0v-6a1 1 0 00-1-1zm0 9.999a1 1 0 00-1 1v6a1 1 0 002 0v-6a1 1 0 00-1-1z" stroke="#F37321" stroke-width=".5"/><path d="M57.648 43.878l1.486-11.89a1 1 0 00.866-.99v-6a1 1 0 00-1-1h-2.532a5.996 5.996 0 00-3.825-9.965 5.997 5.997 0 00-9.14-6.907C42.016 5.172 39.625 4 37.001 4c-3.134 0-5.913 1.678-7.223 4.269a5.998 5.998 0 00-7.771 5.932c-.694.14-1.371.355-2.02.638a9.022 9.022 0 00-1.803-2.38A7.007 7.007 0 0116.032 8h.97a1 1 0 001-1V5a3.003 3.003 0 00-3-2.999H9.004a3.003 3.003 0 00-3 3v2a1 1 0 001 1h.97a7.007 7.007 0 01-2.152 4.46A8.913 8.913 0 003.004 19c0 .738.273 1.45.767 2a2.987 2.987 0 00-.767 2v1h-2a1 1 0 00-1 1v6a1 1 0 00.866.99l1.49 11.922L.37 47.56a2.994 2.994 0 002.998 4.413l.331 2.654c.24 1.921 1.948 3.37 3.972 3.37h44.662c2.024 0 3.731-1.449 3.971-3.37l.337-2.695a2.997 2.997 0 002.992-4.414l-1.985-3.64zM58 25.998v4h-7.923l-2.182-4H58zm-.883 6l-1.109 8.875-4.84-8.875h5.95zM28.002 10a3.954 3.954 0 011.85.454.999.999 0 001.413-.569C32.042 7.561 34.348 6 37.001 6c2.288 0 4.41 1.222 5.406 3.113a1 1 0 001.627.205A4 4 0 0151 11.999a3.955 3.955 0 01-.877 2.497 1 1 0 001 1.6 4.001 4.001 0 014.687 5.123 4 4 0 01-3.81 2.78h-2.46a10.002 10.002 0 00-16.468-4.21 9.997 9.997 0 00-9.07-5.79 4.004 4.004 0 013.999-4zm19.415 13.999H32.585a8 8 0 0114.832 0zm-26.706-7.292a8.004 8.004 0 0110.909 4.845 10.02 10.02 0 00-1.16 2.447h-9.458v-1c0-.739-.272-1.451-.766-2a2.988 2.988 0 00.766-2 9.087 9.087 0 00-.291-2.292zm23.957 9.292l-1.902 1.037a1 1 0 00-.4 1.357l.877 1.605h-26.46l.854-1.563a1 1 0 00-.4-1.357l-1.978-1.08h29.409zm-36.665-21a1.001 1.001 0 011-1h6a1 1 0 011 1v1h-8V5zm7.278 7H8.724A9.036 9.036 0 009.98 8h4.048a9.036 9.036 0 001.254 4zM7.11 14h9.788a6.928 6.928 0 012.106 5 1 1 0 01-1 1h-12a1 1 0 01-1-1 6.927 6.927 0 012.106-5zm-2.106 9a1.001 1.001 0 011-1h12a1 1 0 011 1v1h-14v-1zm-3 7v-4h10.128l-2.181 4H2.003zm6.856 2L4 40.907l-1.113-8.908H8.86zM3.882 49.475a1.002 1.002 0 01-1.357.399 1.001 1.001 0 01-.4-1.357l11.521-21.12 1.756.957-11.52 21.12zm50.438 4.903c-.115.922-.97 1.618-1.988 1.618H7.671c-1.018 0-1.872-.696-1.987-1.618l-.426-3.405c.146-.166.273-.347.379-.54l7.366-13.504v5.068a1 1 0 002 0v-6a1 1 0 00-.948-.997l1.638-3.003h28.64L45.972 35a1 1 0 00-.97.999v6a1 1 0 102 0v-5.11l7.365 13.503c.107.196.236.38.384.546l-.43 3.442zm3.64-5.142a.999.999 0 01-1.838.197L44.6 28.313l1.756-.958 11.52 21.121a.992.992 0 01.082.761z" stroke="#F37321" stroke-width=".5"/></g><defs><clipPath id="clip0_23:74"><path fill="#fff" d="M0 0h60v60H0z"/></clipPath></defs></svg>